<svg xmlns="http://www.w3.org/2000/svg" xmlns:xlink="http://www.w3.org/1999/xlink" preserveAspectRatio="xMidYMid" width="78.937" height="138.75" viewBox="0 0 78.937 138.75">
  <defs>
    <style>
      .cls-1 {
        fill: #e84d37;
        fill-rule: evenodd;
      }
    </style>
  </defs>
  <path d="M78.928,56.686 C78.928,65.837 71.483,73.282 62.331,73.282 C57.979,73.282 53.895,71.616 50.821,68.645 C50.599,68.720 50.376,68.793 50.153,68.864 C48.900,71.274 47.076,73.339 44.812,74.894 C42.042,76.797 38.797,77.802 35.426,77.802 C30.010,77.802 25.011,75.141 21.942,70.879 C19.651,72.434 16.932,73.282 14.063,73.282 C6.311,73.282 0.004,66.975 0.004,59.223 C0.004,54.386 2.489,49.968 6.428,47.417 C4.998,43.537 4.274,39.460 4.274,35.260 C4.274,25.846 7.940,16.996 14.596,10.340 C21.253,3.684 30.103,0.018 39.516,0.018 C48.929,0.018 57.779,3.684 64.435,10.340 C71.092,16.996 74.757,25.846 74.757,35.260 C74.757,38.384 74.350,41.467 73.546,44.451 C76.950,47.573 78.928,51.999 78.928,56.686 ZM68.144,48.170 C66.981,47.375 66.490,45.901 66.942,44.567 C67.956,41.578 68.470,38.447 68.470,35.260 C68.470,27.526 65.458,20.255 59.990,14.786 C54.521,9.317 47.250,6.305 39.516,6.305 C31.782,6.305 24.511,9.317 19.042,14.786 C13.573,20.255 10.562,27.526 10.562,35.260 C10.562,39.566 11.485,43.710 13.307,47.579 C13.686,48.384 13.706,49.313 13.362,50.134 C13.017,50.955 12.340,51.592 11.500,51.885 C8.384,52.974 6.291,55.923 6.291,59.223 C6.291,63.508 9.778,66.994 14.063,66.994 C16.522,66.994 18.783,65.867 20.269,63.901 C20.868,63.108 21.800,62.652 22.777,62.652 C22.932,62.652 23.088,62.664 23.245,62.687 C24.384,62.859 25.339,63.640 25.732,64.723 C27.207,68.786 31.102,71.515 35.426,71.515 C39.650,71.515 43.402,68.985 44.987,65.069 C45.356,64.157 46.131,63.470 47.081,63.214 C48.249,62.898 49.407,62.506 50.523,62.047 C51.828,61.510 53.330,61.908 54.198,63.020 C56.169,65.546 59.133,66.994 62.331,66.994 C68.016,66.994 72.641,62.370 72.641,56.686 C72.641,53.280 70.960,50.097 68.144,48.170 ZM23.413,75.384 L23.454,75.425 L23.458,75.422 C24.216,76.059 25.022,76.634 25.867,77.142 L25.519,77.490 L28.796,80.768 L30.445,79.119 C31.582,79.438 32.754,79.651 33.945,79.748 L30.861,82.832 L34.139,86.110 L37.416,82.832 L34.360,79.776 C34.719,79.797 35.079,79.809 35.441,79.809 C36.406,79.809 37.362,79.734 38.302,79.589 L39.481,80.768 L41.426,78.822 C43.024,78.280 44.549,77.519 45.963,76.548 C47.954,75.181 49.665,73.432 50.987,71.426 C51.526,71.843 52.085,72.228 52.662,72.580 L55.507,75.425 L56.558,74.375 C58.403,74.975 60.352,75.288 62.346,75.288 C62.585,75.288 62.823,75.282 63.060,75.273 L41.693,136.150 C41.084,137.884 40.283,138.750 39.481,138.750 C38.679,138.750 37.877,137.884 37.269,136.150 L15.871,75.189 C17.841,74.972 19.738,74.400 21.481,73.495 C22.081,74.174 22.728,74.804 23.413,75.384 ZM30.861,93.517 L34.138,96.794 L37.416,93.517 L34.139,90.239 L30.861,93.517 ZM42.758,98.859 L39.481,95.581 L36.203,98.859 L39.481,102.136 L42.758,98.859 ZM36.203,109.543 L39.481,112.821 L42.758,109.543 L39.481,106.266 L36.203,109.543 ZM44.823,96.794 L48.100,93.517 L44.823,90.239 L41.545,93.517 L44.823,96.794 ZM39.481,84.897 L36.203,88.174 L39.481,91.452 L42.758,88.174 L39.481,84.897 ZM44.823,79.555 L41.545,82.832 L44.823,86.110 L48.100,82.832 L44.823,79.555 ZM50.165,74.212 L46.888,77.490 L50.165,80.768 L53.442,77.490 L50.165,74.212 ZM55.833,79.881 L55.507,79.555 L52.230,82.832 L54.130,84.732 L55.833,79.881 ZM53.057,87.789 L50.165,84.897 L46.888,88.174 L50.165,91.452 L52.641,88.977 L53.057,87.789 ZM50.281,95.698 L50.165,95.581 L46.888,98.859 L48.578,100.549 L50.281,95.698 ZM46.862,105.439 L47.505,103.606 L44.823,100.924 L41.545,104.201 L44.823,107.479 L46.862,105.439 ZM44.629,111.802 L41.545,114.885 L43.027,116.367 L44.629,111.802 ZM39.481,126.469 L41.954,119.423 L39.481,116.950 L37.007,119.423 L39.481,126.469 ZM35.935,116.367 L37.416,114.885 L34.333,111.802 L35.935,116.367 ZM32.099,105.439 L34.139,107.479 L37.416,104.201 L34.138,100.924 L31.456,103.606 L32.099,105.439 ZM30.383,100.549 L32.073,98.859 L28.796,95.581 L28.680,95.697 L30.383,100.549 ZM26.321,88.977 L28.796,91.452 L32.073,88.174 L28.796,84.897 L25.904,87.789 L26.321,88.977 ZM24.831,84.732 L26.732,82.832 L23.454,79.555 L23.128,79.880 L24.831,84.732 Z" class="cls-1"/>
</svg>
